<?xml version="1.0" standalone="no"?>
<!DOCTYPE svg PUBLIC "-//W3C//DTD SVG 20010904//EN"
 "http://www.w3.org/TR/2001/REC-SVG-20010904/DTD/svg10.dtd">
<svg version="1.0" xmlns="http://www.w3.org/2000/svg"
 viewBox="0 0 2600.000000 2604.000000"
 preserveAspectRatio="xMidYMid meet">
<metadata>
Created by potrace 1.13, written by Peter Selinger 2001-2015
</metadata>
<g transform="translate(0.000000,2604.000000) scale(0.100000,-0.100000)"
fill="#000000" stroke="none">
<path d="M10858 22074 c-89 -21 -157 -61 -228 -133 -104 -106 -166 -229 -220
-436 -67 -260 -84 -482 -77 -995 17 -1151 73 -2234 167 -3245 32 -335 27 -618
-16 -915 -17 -124 -116 -684 -144 -818 -88 -424 -501 -676 -1265 -772 -247
-30 -438 -40 -798 -40 -362 0 -575 8 -1087 42 -294 20 -419 23 -1025 23 -714
0 -853 -5 -1220 -46 -986 -110 -1431 -381 -1304 -795 124 -404 633 -727 1531
-973 405 -110 978 -216 1448 -266 658 -70 1079 -154 1625 -322 418 -129 920
-340 1255 -528 58 -33 131 -72 162 -87 65 -33 111 -81 142 -147 16 -36 21 -65
20 -136 0 -78 -8 -117 -56 -290 -302 -1078 -517 -2213 -592 -3120 -60 -729
-39 -1440 60 -2035 43 -257 163 -660 275 -923 276 -648 607 -900 952 -726 201
101 318 261 411 559 54 174 91 378 141 783 25 203 57 423 71 490 238 1135 816
2614 1481 3789 151 267 215 340 311 357 80 15 85 11 385 -286 859 -849 1735
-1571 3362 -2769 712 -525 1033 -745 1201 -825 278 -132 605 -207 778 -179
187 30 276 130 276 311 0 526 -734 1794 -2108 3639 -288 387 -759 997 -1013
1311 -115 143 -340 539 -422 744 -128 318 -127 566 1 838 143 303 375 552 752
810 228 155 298 195 1003 574 810 435 1170 613 1549 764 336 134 508 189 943
299 467 118 664 190 849 314 204 137 310 299 310 476 0 155 -66 291 -214 441
-152 153 -303 242 -521 304 -276 80 -518 110 -879 109 -369 -1 -667 -35 -1105
-124 -659 -135 -1642 -430 -2492 -749 -208 -78 -239 -91 -533 -226 -415 -191
-581 -243 -800 -252 -155 -6 -230 7 -339 59 -132 62 -280 240 -429 514 -354
649 -799 2055 -1177 3722 -167 734 -228 931 -383 1236 -87 172 -166 288 -270
397 -132 139 -254 217 -397 254 -74 19 -268 19 -347 -1z"/>
</g>
</svg>
